<?xml version="1.0" standalone="no"?>
<!DOCTYPE svg PUBLIC "-//W3C//DTD SVG 1.1//EN" "http://www.w3.org/Graphics/SVG/1.1/DTD/svg11.dtd" >
<svg xmlns="http://www.w3.org/2000/svg">
<metadata></metadata>
<defs>
<font id="ms_gloriola_ii_displaythin" horiz-adv-x="1028" >
<font-face units-per-em="2048" ascent="1536" descent="-512" />
<missing-glyph horiz-adv-x="577" />
<glyph unicode="&#xfb01;" d="M47 911l4 52h166v204q0 322 254 322q74 0 170 -31l-6 -49q-90 29 -160 29q-203 0 -203 -277v-198h334l-4 -52h-330v-911h-55v911h-170zM797 1210q0 20 13.5 32.5t31.5 12.5q20 0 32.5 -13t12.5 -32q0 -45 -45 -45t-45 45zM815 0v961l55 4v-965h-55z" />
<glyph unicode="&#xfb02;" horiz-adv-x="1181" d="M47 911l4 52h166v204q0 322 254 322q74 0 170 -31l-6 -49q-90 29 -160 29q-203 0 -203 -277v-198h334l-4 -52h-330v-911h-55v911h-170zM815 205v1259l55 6v-1267q0 -96 32 -134t102 -38q61 0 155 32l6 -51q-94 -33 -166 -32q-90 0 -137 49t-47 176z" />
<glyph horiz-adv-x="0" />
<glyph unicode="&#xd;" horiz-adv-x="0" />
<glyph unicode=" "  horiz-adv-x="577" />
<glyph unicode="&#x09;" horiz-adv-x="577" />
<glyph unicode="&#xa0;" horiz-adv-x="577" />
<glyph unicode="!" horiz-adv-x="544" d="M223 43q0 23 14.5 36t34.5 13q49 0 50 -49q0 -49 -50 -49q-23 0 -36 14.5t-13 34.5zM244 1438h59l-4 -1094l-51 -6z" />
<glyph unicode="&#x22;" horiz-adv-x="380" d="M72 1438h61l-8 -408h-45zM250 1438h59l-6 -408h-47z" />
<glyph unicode="#" horiz-adv-x="1157" d="M-6 424l6 51h195l143 488h-219l4 51h229l125 428l58 -4l-125 -424h510l127 428l55 -4l-125 -424h186l-6 -51h-192l-146 -488h221l-6 -51h-229l-125 -428l-55 6l123 422h-510l-125 -428l-58 6l125 422h-186zM252 475h510l145 488h-512z" />
<glyph unicode="$" horiz-adv-x="1095" d="M129 1116q0 156 102.5 244t296.5 98v225l52 5v-230q188 -4 348 -88l-13 -53q-147 82 -335 90v-657l2 -2q193 -76 295 -174.5t102 -225.5q0 -158 -108.5 -256t-290.5 -110v-228l-52 -4v230q-188 0 -376 86l12 55q180 -88 364 -88v678l-4 2q-205 86 -300 180t-95 223z M186 1112q0 -104 87 -185t255 -157v637q-168 -10 -255 -87t-87 -208zM580 35q164 12 253 97t89 218q0 102 -78 177t-264 161v-653z" />
<glyph unicode="%" horiz-adv-x="1536" d="M57 1055q0 195 82 298t244 103q156 0 237.5 -103.5t81.5 -297.5q0 -195 -81.5 -300.5t-237.5 -105.5q-162 0 -244 104.5t-82 301.5zM109 1055q0 -356 274 -357q129 0 198.5 90.5t69.5 266.5q0 352 -268 352q-274 0 -274 -352zM276 0l922 1438h59l-919 -1438h-62zM834 387 q0 195 81.5 298t243.5 103q156 0 238 -103t82 -298t-82 -300t-238 -105q-162 0 -243.5 104t-81.5 301zM885 387q0 -356 274 -356q129 0 198.5 90t69.5 266q0 352 -268 352q-274 0 -274 -352z" />
<glyph unicode="&#x26;" horiz-adv-x="1323" d="M117 319q0 104 59.5 200.5t229.5 223.5q-209 244 -209 398q0 147 86 233t229 86q141 0 228 -83t87 -214q0 -98 -63.5 -187t-280.5 -241q207 -223 488 -444q111 131 207 323l51 -20q-96 -197 -213 -338q154 -119 317 -233l-26 -50q-152 104 -330 242q-219 -236 -473 -235 q-176 0 -281.5 95t-105.5 244zM174 319q0 -123 87 -204.5t243 -81.5q227 0 428 217q-304 242 -492 455q-156 -119 -211 -206t-55 -180zM254 1141q0 -141 195 -367q199 139 260 222t61 165q0 111 -70.5 178.5t-187.5 67.5t-187.5 -71.5t-70.5 -194.5z" />
<glyph unicode="'" horiz-adv-x="204" d="M72 1438h61l-8 -408h-45z" />
<glyph unicode="(" horiz-adv-x="614" d="M88 776q0 334 128 570.5t370 359.5l45 -37q-238 -117 -362 -343t-124 -550q0 -322 124 -549t362 -344l-45 -37q-242 125 -370 360.5t-128 569.5z" />
<glyph unicode=")" horiz-adv-x="614" d="M-16 -117q238 117 362.5 344.5t124.5 548.5q0 324 -125 550t-362 343l45 37q242 -123 370.5 -359.5t128.5 -570.5t-129 -569.5t-370 -360.5z" />
<glyph unicode="*" horiz-adv-x="911" d="M68 1133l14 59l346 -119l-6 363l61 6l-6 -369l344 117l23 -57l-348 -107l217 -289l-47 -41l-213 303l-209 -299l-54 31l222 295z" />
<glyph unicode="+" horiz-adv-x="1148" d="M92 694l6 51h449v453l55 4v-457h455l-4 -51h-451v-450l-55 -6v456h-455z" />
<glyph unicode="," horiz-adv-x="319" d="M90 -256q70 147 70 256q0 82 -35 184l70 6q29 -88 28 -163q0 -117 -80 -289z" />
<glyph unicode="-" horiz-adv-x="503" d="M68 457l4 51h366l-6 -51h-364z" />
<glyph unicode="." horiz-adv-x="313" d="M109 43q0 49 49 49t49 -49q0 -23 -14.5 -36t-34.5 -13q-23 0 -36 14.5t-13 34.5z" />
<glyph unicode="/" horiz-adv-x="563" d="M-88 -156l682 1872l55 -4l-680 -1874z" />
<glyph unicode="0" horiz-adv-x="1312" d="M139 721q0 356 133.5 546.5t386.5 190.5q254 0 385.5 -191.5t131.5 -545.5q0 -358 -131.5 -549.5t-385.5 -191.5t-387 189.5t-133 551.5zM197 721q0 -338 117.5 -513t344.5 -175q225 0 342 177t117 511q0 332 -116.5 508t-342.5 176q-225 0 -343.5 -175t-118.5 -509z" />
<glyph unicode="1" horiz-adv-x="661" d="M57 1233v59l387 146h58v-1438h-58v1380z" />
<glyph unicode="2" horiz-adv-x="1015" d="M78 55q342 328 480 485.5t205.5 282.5t67.5 238q0 164 -94 255t-266 91q-182 0 -354 -90l-15 53q184 88 373 88q197 0 305.5 -103.5t108.5 -291.5q0 -170 -146.5 -378t-595.5 -632h783l-6 -53h-842z" />
<glyph unicode="3" horiz-adv-x="1003" d="M78 66l14 53q186 -86 367 -86q186 0 287.5 86t101.5 239q0 92 -53.5 180.5t-161.5 145.5h-342l6 53h326q82 61 133 153.5t51 203.5q0 145 -99.5 228t-267.5 83q-182 0 -350 -84l-12 51q176 86 364 86q199 0 310.5 -97t111.5 -267q0 -215 -184 -377q119 -68 172 -164 t53 -195q0 -180 -118.5 -279t-323.5 -99q-190 0 -385 86z" />
<glyph unicode="4" horiz-adv-x="1140" d="M57 457q180 217 263 447.5t83 533.5h58q0 -303 -81 -531.5t-259 -449.5h565v407l57 6v-413h340l-4 -54h-336v-403h-57v403h-625z" />
<glyph unicode="5" horiz-adv-x="985" d="M98 70l13 51q172 -88 356 -88q182 0 282.5 91t100.5 261q0 199 -120 277.5t-394 78.5h-178v697h678l-7 -54h-614v-591l125 4q301 0 434 -91.5t133 -320.5q0 -193 -114.5 -299t-323.5 -106q-190 0 -371 90z" />
<glyph unicode="6" horiz-adv-x="1110" d="M119 657q0 381 133 591t385 210q160 0 334 -84l-17 -53q-176 84 -319 84q-221 0 -340 -191.5t-119 -543.5q276 151 483 151q180 0 276.5 -110.5t96.5 -302.5q0 -186 -123 -307t-327 -121q-219 0 -341 178t-122 499zM176 612q8 -274 115 -426.5t291 -152.5 q176 0 284.5 104.5t108.5 270.5q0 172 -82 266t-234 94q-197 0 -483 -156z" />
<glyph unicode="7" horiz-adv-x="931" d="M37 1384l4 54h850l4 -54q-285 -346 -395.5 -654t-110.5 -730h-57q0 434 116.5 757.5t385.5 626.5h-797z" />
<glyph unicode="8" horiz-adv-x="1157" d="M98 330q0 121 87 215t327 203q-205 90 -289 179t-84 199q0 154 118 243t323 89q203 0 321.5 -89t118.5 -243q0 -113 -86 -200.5t-289 -177.5q231 -100 323.5 -197.5t92.5 -220.5q0 -162 -122 -256t-359 -94q-240 0 -361 94t-121 256zM156 330q0 -137 106.5 -217 t317.5 -80t317.5 80t106.5 217q0 74 -41 134t-114.5 112.5t-268.5 142.5q-199 -94 -270.5 -144.5t-112.5 -109.5t-41 -135zM197 1126q0 -70 36.5 -125t104.5 -101t242 -124q172 76 241.5 124t105.5 102.5t36 123.5q0 123 -98.5 201t-284.5 78t-284.5 -78t-98.5 -201z" />
<glyph unicode="9" horiz-adv-x="1110" d="M78 1032q0 186 125 306t325 120q219 0 341 -178t122 -500q0 -387 -135 -593.5t-383 -206.5q-156 0 -334 86l17 51q176 -84 319 -84q217 0 336 186.5t123 550.5q-276 -154 -483 -154q-180 0 -276.5 111t-96.5 305zM135 1032q0 -172 82 -267t234 -95q199 0 483 157 q-14 285 -119 431.5t-287 146.5q-174 0 -283.5 -103.5t-109.5 -269.5z" />
<glyph unicode=":" horiz-adv-x="319" d="M111 43q0 23 14.5 36t34.5 13q49 0 49 -49t-49 -49q-23 0 -36 14.5t-13 34.5zM111 920q0 23 14.5 36t34.5 13q49 0 49 -49t-49 -50q-23 0 -36 14.5t-13 35.5z" />
<glyph unicode=";" horiz-adv-x="319" d="M90 -256q70 147 70 256q0 82 -35 184l70 6q29 -88 28 -163q0 -117 -80 -289zM111 920q0 23 14.5 36t34.5 13q49 0 49 -49t-49 -50q-23 0 -36 14.5t-13 35.5z" />
<glyph unicode="&#x3c;" horiz-adv-x="1148" d="M82 694l6 54l965 452l18 -49l-921 -430l921 -432l-18 -49z" />
<glyph unicode="=" horiz-adv-x="1148" d="M92 422l6 51h959l-4 -51h-961zM92 969l6 51h959l-4 -51h-961z" />
<glyph unicode="&#x3e;" horiz-adv-x="1148" d="M78 289l921 432l-921 432l18 47l971 -455l-6 -53l-965 -450z" />
<glyph unicode="?" horiz-adv-x="942" d="M78 1397q188 61 362 61q201 0 313.5 -98t112.5 -266q0 -162 -103.5 -286t-287.5 -175v-289l-51 -6l-2 330q182 45 284.5 154.5t102.5 271.5q0 143 -98.5 227t-261.5 84q-160 0 -359 -62zM399 43q0 23 15 36t35 13q49 0 49 -49t-49 -49q-23 0 -36.5 14.5t-13.5 34.5z" />
<glyph unicode="@" horiz-adv-x="2064" d="M129 313q0 524 266.5 814t732.5 290q391 0 599 -198.5t208 -583.5q0 -307 -119.5 -481t-324.5 -174q-100 0 -156.5 70.5t-56.5 211.5l2 45q-264 -328 -440 -327q-127 0 -187.5 103t-60.5 273q0 291 117.5 459t326.5 168q145 0 371 -100l-70 -561l-6 -86q0 -86 39 -145.5 t121 -59.5q174 0 281.5 153.5t107.5 450.5q0 360 -197.5 545.5t-554.5 185.5q-442 0 -693 -275.5t-251 -777.5q0 -332 185.5 -518t545.5 -186q225 0 418 84l23 -47q-201 -88 -441 -88q-385 0 -585.5 198.5t-200.5 556.5zM647 356q0 -150 48 -237.5t145 -87.5q94 0 210.5 97 t239.5 275l58 449q-172 80 -312 80q-180 0 -284.5 -150.5t-104.5 -425.5z" />
<glyph unicode="A" horiz-adv-x="1273" d="M57 0l543 1436l74 4l545 -1440h-62l-158 416h-727l-155 -416h-60zM293 469h688l-344 913z" />
<glyph unicode="B" horiz-adv-x="1193" d="M160 31v1407h520q164 0 260 -94.5t96 -245.5q0 -219 -174 -367q117 -68 176.5 -167t59.5 -204q0 -182 -138.5 -281t-379.5 -99q-125 0 -420 51zM217 74q233 -41 363 -41q225 0 342.5 87t117.5 240q0 98 -56 187.5t-165 146.5h-602v-620zM217 748h582q180 129 180 350 q0 127 -81 206.5t-218 79.5h-463v-636z" />
<glyph unicode="C" horiz-adv-x="1234" d="M139 719q0 352 164 545.5t461 193.5q197 0 385 -80l-14 -53q-176 80 -371 80q-270 0 -418.5 -179t-148.5 -507t148.5 -507t418.5 -179q186 0 371 80l14 -54q-191 -79 -380 -79h-5q-299 0 -462 193.5t-163 545.5z" />
<glyph unicode="D" horiz-adv-x="1406" d="M160 25v1413h467q643 0 643 -709q0 -354 -176 -551.5t-490 -197.5q-248 0 -444 45zM217 68q193 -35 391 -35q285 0 444.5 184t159.5 512q0 655 -585 655h-410v-1316z" />
<glyph unicode="E" horiz-adv-x="1110" d="M160 0v1438h854l-6 -54h-791v-643h696l-4 -53h-692v-635h797l-6 -53h-848z" />
<glyph unicode="F" horiz-adv-x="1048" d="M160 0v1438h854l-6 -54h-791v-661h696l-4 -53h-692v-670h-57z" />
<glyph unicode="G" horiz-adv-x="1378" d="M139 719q0 360 167 549.5t478 189.5q193 0 381 -80l-12 -53q-185 80 -369 80q-287 0 -437 -180.5t-150 -505.5q0 -332 146 -509t435 -177q176 0 383 76v497h-446l6 53h498v-589q-238 -90 -445 -90q-313 0 -474 192.5t-161 546.5z" />
<glyph unicode="H" horiz-adv-x="1331" d="M160 0v1438h57v-705h899v705h58v-1438h-58v680h-899v-680h-57z" />
<glyph unicode="I" horiz-adv-x="374" d="M160 0v1438h57v-1438h-57z" />
<glyph unicode="J" horiz-adv-x="432" d="M-43 -283q125 102 191.5 209t66.5 248v1264h57v-1266q0 -152 -65.5 -264.5t-206.5 -226.5z" />
<glyph unicode="K" horiz-adv-x="1124" d="M160 0v1438h57v-701l744 703l71 -4l-758 -713l762 -721l-78 -4l-741 700v-698h-57z" />
<glyph unicode="L" horiz-adv-x="1048" d="M160 0v1438h57v-1385h776l-6 -53h-827z" />
<glyph unicode="M" horiz-adv-x="1673" d="M160 0v1436l73 4l605 -1379l604 1379l74 -4v-1436h-58v1337l-586 -1335l-69 -4l-586 1331v-1329h-57z" />
<glyph unicode="N" horiz-adv-x="1331" d="M160 0v1436l57 6l899 -1342v1338h58v-1436l-58 -6l-899 1343v-1339h-57z" />
<glyph unicode="O" horiz-adv-x="1533" d="M139 719q0 739 629 739t629 -739t-629 -739t-629 739zM197 719q0 -686 571 -686t571 686t-571 686t-571 -686z" />
<glyph unicode="P" horiz-adv-x="1136" d="M160 0v1438h325q575 0 576 -432q0 -219 -156.5 -341t-425.5 -122q-63 0 -262 20v-563h-57zM217 616q170 -20 262 -20q248 0 386.5 107.5t138.5 304.5q0 376 -518 376h-3h-266v-768z" />
<glyph unicode="Q" horiz-adv-x="1533" d="M139 719q0 739 629 739t629 -739q0 -315 -117 -498.5t-344 -224.5q55 -178 122.5 -250t168.5 -72q70 0 162 35l8 -51q-106 -37 -180 -37q-115 0 -198 85t-140 282q-53 -8 -111 -8q-629 0 -629 739zM197 719q0 -686 571 -686t571 686t-571 686t-571 -686z" />
<glyph unicode="R" horiz-adv-x="1208" d="M160 0v1438h317q543 0 543 -408q0 -147 -79 -251.5t-228 -151.5l391 -625l-66 -4l-383 614q-86 -18 -184 -18l-133 8l-121 10v-612h-57zM217 666q203 -18 254 -19q236 0 364 102.5t128 282.5q0 352 -490 352h-256v-718z" />
<glyph unicode="S" horiz-adv-x="1116" d="M139 1116q0 168 118 255t312 87q201 0 369 -88l-12 -53q-164 90 -357 90q-174 0 -273 -77t-99 -218q0 -111 99 -197t298 -165q195 -80 295 -177.5t100 -224.5q0 -170 -123 -269t-327 -99q-188 0 -377 86l12 55q180 -88 367 -88q184 0 287.5 86t103.5 231q0 109 -92 191 t-303 172q-205 84 -301.5 180t-96.5 223z" />
<glyph unicode="T" horiz-adv-x="1114" d="M6 1384l4 54h1100l-6 -54h-518v-1384h-58v1384h-522z" />
<glyph unicode="U" horiz-adv-x="1331" d="M160 412v1026h57v-1026q0 -186 114.5 -282.5t334.5 -96.5q225 0 337.5 99t112.5 280v1026h58v-1026q0 -209 -128 -320.5t-380 -111.5t-379 111.5t-127 320.5z" />
<glyph unicode="V" horiz-adv-x="1271" d="M51 1436l60 4l526 -1383l524 1383l60 -4l-549 -1436h-72z" />
<glyph unicode="W" horiz-adv-x="1933" d="M51 1436l60 4l413 -1381l412 1377l63 4l412 -1381l414 1381l57 -4l-434 -1436h-74l-407 1352l-408 -1352h-72z" />
<glyph unicode="X" horiz-adv-x="1323" d="M109 2l520 717l-520 717l65 4l488 -674l487 674l68 -4l-523 -717l523 -717l-68 -4l-487 676l-488 -676z" />
<glyph unicode="Y" horiz-adv-x="1161" d="M37 1436l65 6l480 -752l477 752l67 -6l-516 -801v-635h-57v635z" />
<glyph unicode="Z" horiz-adv-x="1175" d="M98 53l908 1331h-904l7 54h962l6 -54l-907 -1331h909l-6 -53h-969z" />
<glyph unicode="[" horiz-adv-x="483" d="M170 -141v1837h309l-6 -51h-248v-1735h254l-6 -51h-303z" />
<glyph unicode="\" horiz-adv-x="563" d="M-88 1712l57 4l680 -1872l-55 -6z" />
<glyph unicode="]" horiz-adv-x="483" d="M6 -141l4 51h250v1735h-254l4 51h305v-1837h-309z" />
<glyph unicode="^" horiz-adv-x="909" d="M37 477l383 961h69l385 -961l-59 -4l-360 911l-359 -911z" />
<glyph unicode="_" horiz-adv-x="899" d="M6 -117l4 51h885l-6 -51h-883z" />
<glyph unicode="`" horiz-adv-x="448" d="M109 1434h63l170 -320h-57z" />
<glyph unicode="a" horiz-adv-x="921" d="M98 213q0 152 142.5 224.5t466.5 101.5v149q0 244 -203 244q-133 0 -361 -90l-8 51q223 90 369 90q258 0 258 -295v-688h-43l-8 145q-78 -78 -179.5 -121.5t-189.5 -43.5q-117 0 -180.5 62t-63.5 171zM154 215q0 -86 49 -135t139 -49q96 0 195.5 49t169.5 129v278 q-276 -23 -414.5 -84t-138.5 -188z" />
<glyph unicode="b" horiz-adv-x="1064" d="M160 66v1400l55 4v-634q236 147 397 147q166 0 251 -128t85 -374q0 -242 -104.5 -371.5t-298.5 -129.5q-176 0 -385 86zM215 100q166 -69 325 -69h5q172 0 260 118.5t88 333.5q0 217 -71.5 333t-209.5 116q-158 0 -397 -152v-680z" />
<glyph unicode="c" horiz-adv-x="892" d="M119 481q0 238 108.5 370t309.5 132q133 0 258 -53l-9 -51q-125 53 -245 53q-178 0 -272.5 -118t-94.5 -333q0 -217 95.5 -333.5t271.5 -116.5q119 0 245 55l9 -51q-123 -55 -258 -55q-199 0 -308.5 132t-109.5 369z" />
<glyph unicode="d" horiz-adv-x="1064" d="M119 481q0 242 104.5 372t298.5 130q152 0 330 -78v561l55 4v-1470h-45l-10 127q-236 -147 -399 -147q-162 0 -248 126.5t-86 374.5zM174 481q0 -450 278 -450h1q154 0 399 151v672q-174 78 -330 78q-170 0 -259 -117t-89 -334z" />
<glyph unicode="e" horiz-adv-x="991" d="M119 481q0 502 405 502q160 0 254 -110.5t94 -297.5q0 -53 -8 -114h-690q4 -207 99.5 -317.5t271.5 -110.5q127 0 280 57l9 -51q-147 -59 -293 -59q-203 0 -312.5 129t-109.5 372zM174 512h639l4 72q0 147 -74 247.5t-219 100.5q-338 0 -350 -420z" />
<glyph unicode="f" horiz-adv-x="655" d="M47 911l4 52h166v204q0 322 254 322q74 0 170 -31l-6 -49q-90 29 -160 29q-203 0 -203 -277v-198h334l-4 -52h-330v-911h-55v911h-170z" />
<glyph unicode="g" horiz-adv-x="989" d="M88 -168q0 74 51 148.5t150 123.5q-88 41 -88 134q0 94 104 168q-78 29 -127 101.5t-49 174.5q0 135 83 218t257 83q86 0 149 -20h273l-4 -52h-176l12 -12q84 -82 84 -217t-83 -218t-255 -83q-63 0 -113 10q-100 -76 -100 -153q0 -41 36 -72t120 -31h127q193 0 288 -65.5 t95 -175.5q0 -133 -134.5 -218.5t-347.5 -85.5q-176 0 -264 72t-88 170zM143 -168q0 -78 74 -134t223 -56q186 0 306 69.5t120 182.5q0 88 -82 139t-245 51h-127l-64 4q-205 -102 -205 -256zM184 682q0 -111 70 -180.5t215 -69.5q143 0 213 69.5t70 180.5q0 113 -70 181.5 t-213 68.5q-145 0 -215 -68.5t-70 -181.5z" />
<glyph unicode="h" d="M160 0v1466l55 4v-632q240 145 383 145q129 0 200.5 -83t71.5 -236v-664h-55v664q0 131 -58.5 199.5t-158.5 68.5q-90 0 -188.5 -46t-194.5 -104v-782h-55z" />
<glyph unicode="i" horiz-adv-x="372" d="M141 1210q0 20 13.5 32.5t31.5 12.5q20 0 32.5 -13t12.5 -32q0 -45 -45 -45t-45 45zM160 0v961l55 4v-965h-55z" />
<glyph unicode="j" horiz-adv-x="409" d="M-29 -367q111 94 167.5 192.5t56.5 229.5v906l55 4v-910q0 -141 -56.5 -245.5t-179.5 -208.5zM178 1210q0 45 45 45q20 0 32.5 -13t12.5 -32q0 -20 -13 -32.5t-32 -12.5q-45 0 -45 45z" />
<glyph unicode="k" horiz-adv-x="888" d="M160 0v1466l55 4v-952l522 447l72 -4l-535 -457l584 -502l-78 -4l-565 485v-483h-55z" />
<glyph unicode="l" horiz-adv-x="526" d="M160 205v1259l55 6v-1267q0 -96 32 -134t101 -38q61 0 156 32l6 -51q-91 -32 -162 -32h-4q-90 0 -137 49t-47 176z" />
<glyph unicode="m" horiz-adv-x="1601" d="M158 0v961l55 4v-127q225 145 360 145q167 0 224 -143q100 61 195 102t196 41q121 0 187.5 -84t66.5 -235v-664h-56v664q0 127 -52 197.5t-148 70.5q-162 0 -375 -139q16 -55 16 -129v-664h-55v664q0 127 -52 197.5t-149 70.5q-86 0 -177 -46t-181 -104v-782h-55z" />
<glyph unicode="n" d="M160 0v961l55 4v-127q240 145 383 145q129 0 200.5 -83t71.5 -236v-664h-55v664q0 131 -58.5 199.5t-158.5 68.5q-90 0 -188.5 -46t-194.5 -104v-782h-55z" />
<glyph unicode="o" horiz-adv-x="1081" d="M119 481q0 502 424 502q205 0 313.5 -124t108.5 -378q0 -250 -107.5 -375.5t-314.5 -125.5h-2q-422 0 -422 501zM174 481q0 -450 367 -450h2q178 0 272 113.5t94 336.5t-93 337t-273 114q-369 0 -369 -451z" />
<glyph unicode="p" horiz-adv-x="1064" d="M160 -389v1350l55 4v-129q236 147 397 147q166 0 251 -128t85 -374q0 -242 -104.5 -371.5t-298.5 -129.5q-156 0 -330 79v-442zM215 111q178 -80 330 -80q172 0 260 118.5t88 333.5q0 217 -71.5 333t-209.5 116q-158 0 -397 -152v-669z" />
<glyph unicode="q" horiz-adv-x="1064" d="M119 481q0 242 104.5 372t298.5 130q176 0 385 -86v-1280l-55 -6v516q-236 -147 -399 -147q-162 0 -248 126.5t-86 374.5zM174 481q0 -450 278 -450h1q154 0 399 151v682q-166 68 -330 68q-170 0 -259 -117t-89 -334z" />
<glyph unicode="r" horiz-adv-x="688" d="M160 0v961l55 4v-203q88 123 150.5 172t140.5 51q37 0 162 -24l-9 -52q-102 23 -151 23q-68 0 -125 -46t-168 -198v-688h-55z" />
<glyph unicode="s" horiz-adv-x="845" d="M133 748q0 106 80 170.5t219 64.5q133 0 260 -63l-8 -52q-117 63 -252 64q-115 0 -179.5 -49t-64.5 -135q0 -70 59.5 -122.5t209.5 -111.5q137 -57 201.5 -120.5t64.5 -149.5q0 -121 -88 -192.5t-232 -71.5q-133 0 -264 63l8 51q131 -63 263 -63q117 0 187.5 56t70.5 157 q0 72 -59.5 123t-207.5 112q-139 55 -203.5 119t-64.5 150z" />
<glyph unicode="t" horiz-adv-x="720" d="M47 911l4 52h166v311l55 6v-317h334l-4 -52h-330v-606q0 -274 207 -274q78 0 158 26l6 -47q-89 -30 -165 -30h-5q-125 0 -190.5 81.5t-65.5 239.5v610h-170z" />
<glyph unicode="u" d="M160 299v662l55 4v-666q0 -129 57.5 -198.5t157.5 -69.5q92 0 190.5 46t194.5 103v781l55 4v-965h-45l-10 125q-248 -145 -385 -145q-131 0 -200.5 83.5t-69.5 235.5z" />
<glyph unicode="v" horiz-adv-x="909" d="M37 961l59 4l359 -910l360 910l59 -4l-385 -961h-69z" />
<glyph unicode="w" horiz-adv-x="1462" d="M37 961l59 4l297 -910l303 906l70 4l303 -910l299 910l59 -4l-323 -961h-70l-303 909l-303 -909h-70z" />
<glyph unicode="x" horiz-adv-x="882" d="M51 2l359 479l-359 480l68 4l323 -441l326 441l63 -4l-356 -478l356 -481l-65 -4l-326 440l-325 -440z" />
<glyph unicode="y" horiz-adv-x="909" d="M37 961l59 4l359 -910l360 910l59 -4l-540 -1352l-58 4l156 387h-12z" />
<glyph unicode="z" horiz-adv-x="851" d="M68 47l645 864h-607l7 52h663l8 -48l-645 -864h645l-4 -51h-706z" />
<glyph unicode="{" horiz-adv-x="587" d="M47 752l4 51h49q178 0 179 276v299q0 170 59 247t182 77l43 -2l-6 -51l-37 2q-92 0 -139 -62.5t-47 -216.5v-289q0 -260 -150 -307q150 -47 150 -307v-287q0 -156 47 -218t141 -62l39 2l-2 -51l-47 -3q-115 0 -174 78t-59 248v297q0 150 -45.5 214.5t-137.5 64.5h-49z " />
<glyph unicode="|" horiz-adv-x="413" d="M180 -145v1841l56 4v-1841z" />
<glyph unicode="}" horiz-adv-x="587" d="M27 -147l4 51l37 -2q94 0 140 63.5t46 216.5v287q0 260 149 307q-150 47 -149 307v289q0 154 -47 216.5t-141 62.5l-39 -2l4 51l41 2q123 0 180 -78t57 -246v-299q0 -150 46 -213t139 -63h49l-6 -51h-50q-88 -4 -133 -67.5t-45 -211.5v-297q0 -170 -59.5 -248t-175.5 -78 z" />
<glyph unicode="~" horiz-adv-x="1144" d="M92 580q76 240 246 239q80 0 138.5 -37t108.5 -81t102 -80.5t122 -36.5q123 0 192 200l54 -12q-80 -240 -244 -240q-82 0 -139.5 37t-108.5 81t-103 81t-122 37q-123 0 -193 -201z" />
<glyph unicode="&#xa1;" horiz-adv-x="544" d="M223 1006q0 23 14.5 36t34.5 13q49 0 50 -49q-1 -50 -50 -50q-23 0 -36 14.5t-13 35.5zM244 -389l4 1096l51 4l4 -1100h-59z" />
<glyph unicode="&#xa2;" horiz-adv-x="999" d="M98 926q0 242 117 380t338 150v227l51 5v-230q170 -4 297 -55l-8 -51q-141 55 -295 55q-215 0 -329.5 -126t-114.5 -355q0 -236 116.5 -360t327.5 -124q147 0 295 58l8 -51q-143 -57 -297 -58v-221l-51 -6v227q-227 18 -341 157.5t-114 377.5z" />
<glyph unicode="&#xa3;" horiz-adv-x="1058" d="M94 55q176 166 244 297t72 289h-316l6 51h306l-21 58l-49 116q-74 162 -74 262q0 154 76 242t217 88q170 0 340 -51l-12 -53q-162 51 -328 51q-121 0 -178.5 -76t-57.5 -188q0 -88 74 -244q66 -143 72 -205h432l-4 -51h-426q-4 -170 -72.5 -303t-230.5 -285h801l-7 -53 h-858z" />
<glyph unicode="&#xa4;" horiz-adv-x="1146" d="M156 338l137 137q-86 96 -86 246t84 246l-135 135l41 35l133 -133q96 84 243 83q150 0 246 -83l135 133l39 -35l-137 -137q84 -96 84 -244q0 -147 -84 -244l137 -139l-39 -35l-135 135q-96 -84 -246 -84q-147 0 -243 84l-133 -135zM262 721q0 -143 88 -229t223 -86 q137 0 224.5 87t87.5 228q0 139 -85 227t-227 88q-141 0 -226 -88t-85 -227z" />
<glyph unicode="&#xa5;" horiz-adv-x="1163" d="M37 1436l65 6l480 -752l477 752l67 -6l-483 -750h369l-4 -51h-398v-281h402l-4 -51h-398v-303h-57v303h-408l7 51h401v281h-408l7 51h368z" />
<glyph unicode="&#xa6;" horiz-adv-x="413" d="M180 -145v755l56 6v-757zM180 940v756l56 4v-756z" />
<glyph unicode="&#xa7;" horiz-adv-x="1116" d="M109 999q0 213 133 336t352 123q172 0 362 -90l-14 -51q-184 88 -348 88q-53 0 -100 -10q-12 -74 -13 -142q0 -266 230 -563q170 -219 234.5 -357t64.5 -282q0 -211 -132.5 -336t-355.5 -125q-170 0 -360 91l14 51q184 -88 346 -88q53 0 103 10q12 74 12 141 q0 268 -229 567q-170 217 -234.5 355.5t-64.5 281.5zM166 999q0 -135 67.5 -273t233.5 -351q227 -299 227 -576q0 -63 -10 -131l4 2q123 39 193.5 138.5t70.5 242.5q0 137 -70.5 279.5t-228.5 345.5q-231 297 -231 573q0 63 10 131l-4 -2q-125 -39 -193.5 -140.5 t-68.5 -238.5z" />
<glyph unicode="&#xa8;" horiz-adv-x="636" d="M109 1210q0 45 45 45q20 0 32.5 -13t12.5 -32q0 -20 -13.5 -32.5t-31.5 -12.5q-45 0 -45 45zM469 1210q0 20 13.5 32.5t31.5 12.5q20 0 32.5 -13t12.5 -32q0 -45 -45 -45t-45 45z" />
<glyph unicode="&#xa9;" horiz-adv-x="1611" d="M68 719q0 328 205.5 533.5t533.5 205.5t533.5 -205.5t205.5 -533.5t-205.5 -533.5t-533.5 -205.5t-533.5 205.5t-205.5 533.5zM123 719q0 -303 190.5 -495.5t493.5 -192.5q305 0 494.5 191.5t189.5 496.5q0 303 -190.5 495.5t-493.5 192.5q-305 0 -494.5 -191.5 t-189.5 -496.5zM438 719q0 190 98.5 295.5t280.5 105.5q119 0 232 -41l-9 -51q-106 41 -223 41q-154 0 -238.5 -88t-84.5 -262q0 -170 84 -261t239 -91q117 0 223 41l9 -52q-113 -41 -232 -41q-180 0 -279.5 104.5t-99.5 299.5z" />
<glyph unicode="&#xaa;" horiz-adv-x="600" d="M59 975q0 96 92.5 141t299.5 64v88q0 143 -127 143q-76 0 -232 -53l-8 45q156 55 244 55q174 0 174 -188v-432h-39l-8 86q-111 -98 -234 -99q-66 0 -114 36t-48 114zM111 977q-1 -107 118 -107q55 0 116 27t106 74v168q-178 -14 -259 -51t-81 -111z" />
<glyph unicode="&#xab;" horiz-adv-x="835" d="M37 457l4 53l399 395l37 -43l-389 -381l389 -379l-37 -43zM348 457l6 53l400 395l37 -43l-392 -381l392 -379l-37 -43z" />
<glyph unicode="&#xac;" horiz-adv-x="1148" d="M92 694l6 51h957v-501l-56 -6v456h-907z" />
<glyph unicode="&#xad;" horiz-adv-x="503" d="M68 457l4 51h366l-6 -51h-364z" />
<glyph unicode="&#xae;" horiz-adv-x="874" d="M68 1087q0 166 101 268.5t269 102.5q166 0 268.5 -101.5t102.5 -269.5q0 -166 -101.5 -268t-269.5 -102q-166 0 -268 101t-102 269zM111 1087q0 -150 92 -239.5t235 -89.5t235.5 92t92.5 237q0 147 -92 239.5t-236 92.5q-143 0 -235 -90t-92 -242zM309 889v393h101 q170 0 170 -125q0 -84 -91 -117q20 -115 76 -114q23 0 51 12l7 -39q-35 -14 -66 -14q-82 0 -111 145l-38 -2l-56 4v-143h-43zM352 1071l25 -2h31q57 0 93 23.5t36 64.5q0 86 -127 86h-58v-172z" />
<glyph unicode="&#xaf;" horiz-adv-x="790" d="M109 1194l4 49h569l-4 -49h-569z" />
<glyph unicode="&#xb0;" horiz-adv-x="626" d="M66 1208q0 111 67.5 180.5t177.5 69.5q111 0 180.5 -69.5t69.5 -180.5t-69.5 -178t-180.5 -67t-178 67t-67 178zM121 1208q0 -86 52 -140t138 -54t140.5 54t54.5 140q0 90 -54.5 144.5t-140.5 54.5t-138 -54.5t-52 -144.5z" />
<glyph unicode="&#xb1;" horiz-adv-x="1148" d="M92 0l6 51h959l-4 -51h-961zM92 694l6 51h449v453l55 4v-457h455l-4 -51h-451v-450l-55 -6v456h-455z" />
<glyph unicode="&#xb2;" horiz-adv-x="620" d="M43 717q221 164 332.5 283.5t111.5 222.5q0 90 -57 137t-154 47q-121 0 -210 -49l-11 47q102 51 224 51q123 0 192.5 -60t69.5 -173q0 -117 -111 -236t-321 -272h450l-4 -47h-508z" />
<glyph unicode="&#xb3;" horiz-adv-x="624" d="M49 1403q115 53 234 53q121 0 186.5 -53t65.5 -148q0 -115 -111 -202q135 -70 135 -193q0 -98 -71.5 -154.5t-190.5 -56.5q-111 0 -246 53l12 48q131 -51 234 -52q86 0 147.5 38t61.5 126q0 100 -123 164h-207l4 47h199q102 82 102 180q0 84 -58 119t-140 35 q-111 0 -222 -51z" />
<glyph unicode="&#xb4;" horiz-adv-x="448" d="M109 1114l167 320h66l-178 -320h-55z" />
<glyph unicode="&#xb5;" d="M160 -389v1350l55 4v-666q0 -129 57.5 -198.5t157.5 -69.5q92 0 190.5 46t194.5 103v781l55 4v-965h-45l-10 125q-248 -145 -385 -145q-164 0 -215 145v-508z" />
<glyph unicode="&#xb6;" horiz-adv-x="1015" d="M72 1118q0 141 89 230.5t230 89.5h625l-4 -54h-142v-1384h-57v1384h-240v-1384h-57v799h-125q-141 0 -230 89t-89 230z" />
<glyph unicode="&#xb7;" horiz-adv-x="313" d="M109 721q0 49 49 49q23 0 36 -14.5t13 -34.5q0 -23 -14.5 -36t-34.5 -13q-49 0 -49 49z" />
<glyph unicode="&#xb8;" horiz-adv-x="548" d="M109 -383l10 49q49 -27 121 -26q59 0 102 23.5t43 74.5q0 45 -28.5 71.5t-80.5 26.5q-27 0 -75 -16l-37 35l82 149l61 -2l-78 -129q35 10 62 10q66 0 107.5 -39t41.5 -106q0 -72 -57 -110t-139 -38q-74 0 -135 27z" />
<glyph unicode="&#xb9;" horiz-adv-x="595" d="M41 668l4 47h242v676l-246 -93v54l248 92h49v-729h227l-4 -47h-520z" />
<glyph unicode="&#xba;" horiz-adv-x="704" d="M76 1141q0 166 75.5 241.5t200.5 75.5t201 -75.5t76 -241.5t-76 -241t-201 -75t-200.5 75t-75.5 241zM129 1141q0 -268 223 -269q225 0 226 269q0 270 -226 270q-100 0 -161.5 -64.5t-61.5 -205.5z" />
<glyph unicode="&#xbb;" horiz-adv-x="835" d="M47 100l389 381l-389 381l37 41l403 -397l-4 -51l-399 -396zM358 100l392 381l-392 381l37 41l406 -397l-6 -51l-400 -396z" />
<glyph unicode="&#xbc;" horiz-adv-x="1429" d="M47 668l4 47h240v676l-244 -93v54l248 92h47v-729h229l-4 -47h-520zM254 0l922 1438h59l-920 -1438h-61zM793 252q100 117 147 239.5t47 286.5h51q0 -154 -42 -277.5t-148 -250.5h299v219l51 4v-223h186l-6 -47h-180v-203h-51v203h-350z" />
<glyph unicode="&#xbd;" horiz-adv-x="1435" d="M47 668l4 47h240v676l-244 -93v54l248 92h47v-729h229l-4 -47h-520zM254 0l922 1438h59l-920 -1438h-61zM872 49q221 166 333 285t112 221q0 88 -57.5 137t-155.5 49q-113 0 -211 -51l-10 49q98 49 225 49q121 0 191.5 -60t70.5 -171q0 -117 -111.5 -237.5t-322.5 -272.5 h453l-5 -47h-507z" />
<glyph unicode="&#xbe;" horiz-adv-x="1411" d="M51 1403q115 53 234 53q121 0 186.5 -53t65.5 -148q0 -115 -111 -202q135 -70 135 -193q0 -98 -71.5 -154.5t-190.5 -56.5q-111 0 -246 53l13 48q131 -51 233 -52q86 0 147.5 38t61.5 126q0 100 -123 164h-207l4 47h199q102 82 102 180q0 84 -58 119t-140 35 q-111 0 -222 -51zM225 0l922 1438h59l-919 -1438h-62zM772 252q100 117 147.5 239.5t47.5 286.5h53q0 -154 -42 -277.5t-149 -250.5h297v219l54 4v-223h184l-4 -47h-180v-203h-54v203h-348z" />
<glyph unicode="&#xbf;" horiz-adv-x="942" d="M78 -45q0 162 101.5 286t289.5 177v289l51 4l2 -330q-188 -47 -287.5 -155.5t-99.5 -270.5q0 -143 98.5 -227t262.5 -84q160 0 358 61l12 -53q-188 -61 -362 -62q-201 0 -313.5 98.5t-112.5 266.5zM446 1006q0 49 50 49q49 0 49 -49q0 -23 -14.5 -36.5t-34.5 -13.5 q-23 0 -36.5 14.5t-13.5 35.5z" />
<glyph unicode="&#xc0;" horiz-adv-x="1273" d="M57 0l543 1436l74 4l545 -1440h-62l-158 416h-727l-155 -416h-60zM293 469h688l-344 913zM377 1819h79l234 -254h-64z" />
<glyph unicode="&#xc1;" horiz-adv-x="1273" d="M57 0l543 1436l74 4l545 -1440h-62l-158 416h-727l-155 -416h-60zM293 469h688l-344 913zM582 1565l233 254h80l-250 -254h-63z" />
<glyph unicode="&#xc2;" horiz-adv-x="1273" d="M57 0l543 1436l74 4l545 -1440h-62l-158 416h-727l-155 -416h-60zM293 469h688l-344 913zM351 1565l260 254h49l262 -254h-74l-213 209l-211 -209h-73z" />
<glyph unicode="&#xc3;" horiz-adv-x="1273" d="M57 0l543 1436l74 4l545 -1440h-62l-158 416h-727l-155 -416h-60zM293 469h688l-344 913zM340 1552q16 78 63 115t102 37q45 0 79 -20.5t63.5 -44t59.5 -44t67 -20.5q80 0 110 104l47 -10q-16 -74 -61 -109.5t-98 -35.5q-47 0 -80 20.5t-62.5 44t-59.5 44t-69 20.5 q-86 0 -116 -109z" />
<glyph unicode="&#xc4;" horiz-adv-x="1273" d="M57 0l543 1436l74 4l545 -1440h-62l-158 416h-727l-155 -416h-60zM293 469h688l-344 913zM412 1653q0 45 45 45t45 -45q0 -20 -13.5 -32.5t-31.5 -12.5q-20 0 -32.5 13t-12.5 32zM772 1653q0 20 13.5 32.5t31.5 12.5q45 0 45 -45t-45 -45q-20 0 -32.5 13t-12.5 32z" />
<glyph unicode="&#xc5;" horiz-adv-x="1273" d="M57 0l543 1436l74 4l545 -1440h-62l-158 416h-727l-155 -416h-60zM293 469h688l-344 913zM459 1604q0 80 49 130t127 50t128 -50.5t50 -129.5q0 -78 -50.5 -127.5t-127.5 -49.5q-78 0 -127 49.5t-49 127.5zM510 1604q0 -57 34.5 -93t90.5 -36q57 0 92 35.5t35 93.5 q0 59 -35 96t-92 37q-55 0 -90 -37t-35 -96z" />
<glyph unicode="&#xc6;" horiz-adv-x="1875" d="M-37 0l940 1438h875l-4 -54h-793v-643h698l-6 -53h-692v-635h797l-4 -53h-850v416h-623l-268 -416h-70zM336 469h588v907z" />
<glyph unicode="&#xc7;" horiz-adv-x="1234" d="M139 719q0 352 164 545.5t461 193.5q197 0 385 -80l-14 -53q-176 80 -371 80q-270 0 -418.5 -179t-148.5 -507t148.5 -507t418.5 -179q186 0 371 80l14 -54q-193 -80 -385 -79q-299 0 -462 193.5t-163 545.5zM611 -383l10 49q49 -27 121 -26q59 0 102 23.5t43 74.5 q0 45 -28.5 71.5t-80.5 26.5q-27 0 -75 -16l-37 35l82 149l61 -2l-78 -129q35 10 62 10q66 0 107.5 -39t41.5 -106q0 -72 -57 -110t-139 -38q-74 0 -135 27z" />
<glyph unicode="&#xc8;" horiz-adv-x="1110" d="M160 0v1438h854l-6 -54h-791v-643h696l-4 -53h-692v-635h797l-6 -53h-848zM410 1819h79l234 -254h-64z" />
<glyph unicode="&#xc9;" horiz-adv-x="1110" d="M160 0v1438h854l-6 -54h-791v-643h696l-4 -53h-692v-635h797l-6 -53h-848zM451 1565l233 254h80l-250 -254h-63z" />
<glyph unicode="&#xca;" horiz-adv-x="1110" d="M160 0v1438h854l-6 -54h-791v-643h696l-4 -53h-692v-635h797l-6 -53h-848zM302 1565l260 254h49l262 -254h-74l-213 209l-211 -209h-73z" />
<glyph unicode="&#xcb;" horiz-adv-x="1110" d="M160 0v1438h854l-6 -54h-791v-643h696l-4 -53h-692v-635h797l-6 -53h-848zM363 1653q0 45 45 45t45 -45q0 -20 -13.5 -32.5t-31.5 -12.5q-20 0 -32.5 13t-12.5 32zM723 1653q0 20 13.5 32.5t31.5 12.5q45 0 45 -45t-45 -45q-20 0 -32.5 13t-12.5 32z" />
<glyph unicode="&#xcc;" horiz-adv-x="374" d="M-81 1819h79l234 -254h-64zM160 0v1438h57v-1438h-57z" />
<glyph unicode="&#xcd;" horiz-adv-x="374" d="M150 1565l233 254h80l-250 -254h-63zM160 0v1438h57v-1438h-57z" />
<glyph unicode="&#xce;" horiz-adv-x="374" d="M-92 1565l260 254h49l262 -254h-74l-213 209l-211 -209h-73zM160 0v1438h57v-1438h-57z" />
<glyph unicode="&#xcf;" horiz-adv-x="374" d="M-32 1653q0 45 45 45t45 -45q0 -20 -13.5 -32.5t-31.5 -12.5q-20 0 -32.5 13t-12.5 32zM160 0v1438h57v-1438h-57zM328 1653q0 20 13.5 32.5t31.5 12.5q45 0 45 -45t-45 -45q-20 0 -32.5 13t-12.5 32z" />
<glyph unicode="&#xd0;" horiz-adv-x="1406" d="M11 698l4 49h569l-4 -49h-569zM160 25v1413h467q643 0 643 -709q0 -354 -176 -551.5t-490 -197.5q-248 0 -444 45zM217 68q193 -35 391 -35q285 0 444.5 184t159.5 512q0 655 -585 655h-410v-1316z" />
<glyph unicode="&#xd1;" horiz-adv-x="1331" d="M160 0v1436l57 6l899 -1342v1338h58v-1436l-58 -6l-899 1343v-1339h-57zM371 1552q16 78 63 115t102 37q45 0 79 -20.5t63.5 -44t59.5 -44t67 -20.5q80 0 110 104l47 -10q-16 -74 -61 -109.5t-98 -35.5q-47 0 -80 20.5t-62.5 44t-59.5 44t-69 20.5q-86 0 -116 -109z" />
<glyph unicode="&#xd2;" horiz-adv-x="1533" d="M139 719q0 739 629 739t629 -739t-629 -739t-629 739zM197 719q0 -686 571 -686t571 686t-571 686t-571 -686zM560 1819h79l234 -254h-64z" />
<glyph unicode="&#xd3;" horiz-adv-x="1533" d="M139 719q0 739 629 739t629 -739t-629 -739t-629 739zM197 719q0 -686 571 -686t571 686t-571 686t-571 -686zM662 1565l233 254h80l-250 -254h-63z" />
<glyph unicode="&#xd4;" horiz-adv-x="1533" d="M139 719q0 739 629 739t629 -739t-629 -739t-629 739zM197 719q0 -686 571 -686t571 686t-571 686t-571 -686zM482 1565l260 254h49l262 -254h-74l-213 209l-211 -209h-73z" />
<glyph unicode="&#xd5;" horiz-adv-x="1533" d="M139 719q0 739 629 739t629 -739t-629 -739t-629 739zM197 719q0 -686 571 -686t571 686t-571 686t-571 -686zM471 1552q16 78 63 115t102 37q45 0 79 -20.5t63.5 -44t59.5 -44t67 -20.5q80 0 110 104l47 -10q-16 -74 -61 -109.5t-98 -35.5q-47 0 -80 20.5t-62.5 44 t-59.5 44t-69 20.5q-86 0 -116 -109z" />
<glyph unicode="&#xd6;" horiz-adv-x="1533" d="M139 719q0 739 629 739t629 -739t-629 -739t-629 739zM197 719q0 -686 571 -686t571 686t-571 686t-571 -686zM543 1653q0 45 45 45t45 -45q0 -20 -13.5 -32.5t-31.5 -12.5q-20 0 -32.5 13t-12.5 32zM903 1653q0 20 13.5 32.5t31.5 12.5q45 0 45 -45t-45 -45 q-20 0 -32.5 13t-12.5 32z" />
<glyph unicode="&#xd7;" horiz-adv-x="1148" d="M156 338l381 383l-381 381l41 35l378 -379l379 379l39 -35l-381 -381l381 -383l-39 -35l-379 379l-378 -379z" />
<glyph unicode="&#xd8;" horiz-adv-x="1533" d="M139 719q0 739 629 739q250 0 397 -115l144 207l49 -26l-150 -217l13 -15q176 -184 176 -573q0 -739 -629 -739q-244 0 -397 114l-144 -207l-51 27l152 217l-15 14q-174 186 -174 574zM197 719q0 -356 157 -533l6 -6l770 1114q-135 111 -362 111q-571 0 -571 -686z M401 141q138 -108 367 -108q571 0 571 686q0 371 -165 536z" />
<glyph unicode="&#xd9;" horiz-adv-x="1331" d="M160 412v1026h57v-1026q0 -186 114.5 -282.5t334.5 -96.5q225 0 337.5 99t112.5 280v1026h58v-1026q0 -209 -128 -320.5t-380 -111.5t-379 111.5t-127 320.5zM459 1819h79l234 -254h-64z" />
<glyph unicode="&#xda;" horiz-adv-x="1331" d="M160 412v1026h57v-1026q0 -186 114.5 -282.5t334.5 -96.5q225 0 337.5 99t112.5 280v1026h58v-1026q0 -209 -128 -320.5t-380 -111.5t-379 111.5t-127 320.5zM562 1565l233 254h80l-250 -254h-63z" />
<glyph unicode="&#xdb;" horiz-adv-x="1331" d="M160 412v1026h57v-1026q0 -186 114.5 -282.5t334.5 -96.5q225 0 337.5 99t112.5 280v1026h58v-1026q0 -209 -128 -320.5t-380 -111.5t-379 111.5t-127 320.5zM381 1565l260 254h49l262 -254h-74l-213 209l-211 -209h-73z" />
<glyph unicode="&#xdc;" horiz-adv-x="1331" d="M160 412v1026h57v-1026q0 -186 114.5 -282.5t334.5 -96.5q225 0 337.5 99t112.5 280v1026h58v-1026q0 -209 -128 -320.5t-380 -111.5t-379 111.5t-127 320.5zM441 1653q0 45 45 45t45 -45q0 -20 -13.5 -32.5t-31.5 -12.5q-20 0 -32.5 13t-12.5 32zM801 1653 q0 20 13.5 32.5t31.5 12.5q45 0 45 -45t-45 -45q-20 0 -32.5 13t-12.5 32z" />
<glyph unicode="&#xdd;" horiz-adv-x="1161" d="M37 1436l65 6l480 -752l477 752l67 -6l-516 -801v-635h-57v635zM496 1565l233 254h80l-250 -254h-63z" />
<glyph unicode="&#xde;" horiz-adv-x="1136" d="M160 0v1438h57v-277q178 18 262 19q274 0 428 -122t154 -339q0 -219 -155.5 -340t-426.5 -121q-63 0 -262 21v-279h-57zM217 332q170 -20 262 -21q248 0 386.5 107.5t138.5 300.5t-136.5 300t-388.5 107q-109 0 -262 -18v-776z" />
<glyph unicode="&#xdf;" horiz-adv-x="1083" d="M160 0v1137q0 178 89 265t236 87t229.5 -70.5t82.5 -193.5q0 -90 -82 -254l-103 -189q162 -37 257.5 -154.5t95.5 -269.5q0 -166 -111 -272t-285 -106q-78 0 -170 30l9 51q94 -31 161 -30q152 0 246 95t94 234q0 141 -92 245t-246 132l-22 43l117 215q74 147 73 232 q0 86 -60.5 148.5t-193.5 62.5q-121 0 -195.5 -75t-74.5 -226v-1137h-55z" />
<glyph unicode="&#xe0;" horiz-adv-x="921" d="M98 213q0 152 142.5 224.5t466.5 101.5v149q0 244 -203 244q-133 0 -361 -90l-8 51q223 90 369 90q258 0 258 -295v-688h-43l-8 145q-78 -78 -179.5 -121.5t-189.5 -43.5q-117 0 -180.5 62t-63.5 171zM154 215q0 -86 49 -135t139 -49q96 0 195.5 49t169.5 129v278 q-276 -23 -414.5 -84t-138.5 -188zM324 1434h63l170 -320h-57z" />
<glyph unicode="&#xe1;" horiz-adv-x="921" d="M98 213q0 152 142.5 224.5t466.5 101.5v149q0 244 -203 244q-133 0 -361 -90l-8 51q223 90 369 90q258 0 258 -295v-688h-43l-8 145q-78 -78 -179.5 -121.5t-189.5 -43.5q-117 0 -180.5 62t-63.5 171zM154 215q0 -86 49 -135t139 -49q96 0 195.5 49t169.5 129v278 q-276 -23 -414.5 -84t-138.5 -188zM385 1114l167 320h66l-178 -320h-55z" />
<glyph unicode="&#xe2;" horiz-adv-x="921" d="M98 213q0 152 142.5 224.5t466.5 101.5v149q0 244 -203 244q-133 0 -361 -90l-8 51q223 90 369 90q258 0 258 -295v-688h-43l-8 145q-78 -78 -179.5 -121.5t-189.5 -43.5q-117 0 -180.5 62t-63.5 171zM154 215q0 -86 49 -135t139 -49q96 0 195.5 49t169.5 129v278 q-276 -23 -414.5 -84t-138.5 -188zM211 1114l233 320h49l236 -320h-64l-196 270l-197 -270h-61z" />
<glyph unicode="&#xe3;" horiz-adv-x="921" d="M98 213q0 152 142.5 224.5t466.5 101.5v149q0 244 -203 244q-133 0 -361 -90l-8 51q223 90 369 90q258 0 258 -295v-688h-43l-8 145q-78 -78 -179.5 -121.5t-189.5 -43.5q-117 0 -180.5 62t-63.5 171zM154 215q0 -86 49 -135t139 -49q96 0 195.5 49t169.5 129v278 q-276 -23 -414.5 -84t-138.5 -188zM177 1186q16 78 63 120t102 42q39 0 70 -21.5t58.5 -48.5t53 -48.5t56.5 -21.5q78 0 111 115l47 -10q-16 -74 -61.5 -115t-98.5 -41t-125 70q-74 70 -115 69q-84 0 -116 -118z" />
<glyph unicode="&#xe4;" horiz-adv-x="921" d="M98 213q0 152 142.5 224.5t466.5 101.5v149q0 244 -203 244q-133 0 -361 -90l-8 51q223 90 369 90q258 0 258 -295v-688h-43l-8 145q-78 -78 -179.5 -121.5t-189.5 -43.5q-117 0 -180.5 62t-63.5 171zM154 215q0 -86 49 -135t139 -49q96 0 195.5 49t169.5 129v278 q-276 -23 -414.5 -84t-138.5 -188zM240 1210q0 45 45 45q20 0 32.5 -13t12.5 -32q0 -20 -13.5 -32.5t-31.5 -12.5q-45 0 -45 45zM600 1210q0 20 13.5 32.5t31.5 12.5q20 0 32.5 -13t12.5 -32q0 -45 -45 -45t-45 45z" />
<glyph unicode="&#xe5;" horiz-adv-x="921" d="M98 213q0 152 142.5 224.5t466.5 101.5v149q0 244 -203 244q-133 0 -361 -90l-8 51q223 90 369 90q258 0 258 -295v-688h-43l-8 145q-78 -78 -179.5 -121.5t-189.5 -43.5q-117 0 -180.5 62t-63.5 171zM154 215q0 -86 49 -135t139 -49q96 0 195.5 49t169.5 129v278 q-276 -23 -414.5 -84t-138.5 -188zM293 1266q0 80 49 130t127 50t128 -50t50 -130q0 -78 -50.5 -127t-127.5 -49q-78 0 -127 49t-49 127zM344 1266q0 -57 34.5 -93t90.5 -36q57 0 92 35.5t35 93.5q0 59 -35 96t-92 37q-55 0 -90 -37t-35 -96z" />
<glyph unicode="&#xe6;" horiz-adv-x="1579" d="M98 213q0 150 140.5 222.5t468.5 101.5v151q0 244 -203 244q-133 0 -361 -90l-8 51q223 90 369 90q109 0 169 -50t81 -171q92 221 358 221q160 0 254 -110.5t94 -297.5q0 -53 -8 -114h-690q4 -207 99 -317.5t272 -110.5q127 0 280 57l8 -51q-147 -59 -293 -59 q-264 0 -364 208q-205 -209 -422 -208q-117 0 -180.5 62t-63.5 171zM154 215q0 -86 49 -135t139 -49q209 0 401 202l-2 11q-35 96 -34 237v4q-285 -25 -419 -85t-134 -185zM762 512h639l4 72q0 147 -74 247.5t-219 100.5q-338 0 -350 -420z" />
<glyph unicode="&#xe7;" horiz-adv-x="892" d="M119 481q0 238 108.5 370t309.5 132q133 0 258 -53l-9 -51q-125 53 -245 53q-178 0 -272.5 -118t-94.5 -333q0 -217 95.5 -333.5t271.5 -116.5q119 0 245 55l9 -51q-123 -55 -258 -55q-199 0 -308.5 132t-109.5 369zM381 -383l10 49q49 -27 121 -26q59 0 102 23.5 t43 74.5q0 45 -28.5 71.5t-80.5 26.5q-27 0 -75 -16l-37 35l82 149l61 -2l-78 -129q35 10 62 10q66 0 107.5 -39t41.5 -106q0 -72 -57 -110t-139 -38q-74 0 -135 27z" />
<glyph unicode="&#xe8;" horiz-adv-x="991" d="M119 481q0 502 405 502q160 0 254 -110.5t94 -297.5q0 -53 -8 -114h-690q4 -207 99.5 -317.5t271.5 -110.5q127 0 280 57l9 -51q-147 -59 -293 -59q-203 0 -312.5 129t-109.5 372zM174 512h639l4 72q0 147 -74 247.5t-219 100.5q-338 0 -350 -420zM353 1434h63l170 -320 h-57z" />
<glyph unicode="&#xe9;" horiz-adv-x="991" d="M119 481q0 502 405 502q160 0 254 -110.5t94 -297.5q0 -53 -8 -114h-690q4 -207 99.5 -317.5t271.5 -110.5q127 0 280 57l9 -51q-147 -59 -293 -59q-203 0 -312.5 129t-109.5 372zM174 512h639l4 72q0 147 -74 247.5t-219 100.5q-338 0 -350 -420zM445 1114l167 320h66 l-178 -320h-55z" />
<glyph unicode="&#xea;" horiz-adv-x="991" d="M119 481q0 502 405 502q160 0 254 -110.5t94 -297.5q0 -53 -8 -114h-690q4 -207 99.5 -317.5t271.5 -110.5q127 0 280 57l9 -51q-147 -59 -293 -59q-203 0 -312.5 129t-109.5 372zM174 512h639l4 72q0 147 -74 247.5t-219 100.5q-338 0 -350 -420zM250 1114l233 320h49 l236 -320h-64l-196 270l-197 -270h-61z" />
<glyph unicode="&#xeb;" horiz-adv-x="991" d="M119 481q0 502 405 502q160 0 254 -110.5t94 -297.5q0 -53 -8 -114h-690q4 -207 99.5 -317.5t271.5 -110.5q127 0 280 57l9 -51q-147 -59 -293 -59q-203 0 -312.5 129t-109.5 372zM174 512h639l4 72q0 147 -74 247.5t-219 100.5q-338 0 -350 -420zM299 1210q0 45 45 45 q20 0 32.5 -13t12.5 -32q0 -20 -13.5 -32.5t-31.5 -12.5q-45 0 -45 45zM659 1210q0 20 13.5 32.5t31.5 12.5q20 0 32.5 -13t12.5 -32q0 -45 -45 -45t-45 45z" />
<glyph unicode="&#xec;" horiz-adv-x="372" d="M-8 1434h63l170 -320h-57zM160 0v961l55 4v-965h-55z" />
<glyph unicode="&#xed;" horiz-adv-x="372" d="M154 1114l167 320h66l-178 -320h-55zM160 0v961l55 4v-965h-55z" />
<glyph unicode="&#xee;" horiz-adv-x="372" d="M-67 1114l233 320h49l236 -320h-64l-196 270l-197 -270h-61zM160 0v961l55 4v-965h-55z" />
<glyph unicode="&#xef;" horiz-adv-x="372" d="M-32 1210q0 45 45 45q20 0 32.5 -13t12.5 -32q0 -20 -13.5 -32.5t-31.5 -12.5q-45 0 -45 45zM160 0v961l55 4v-965h-55zM328 1210q0 20 13.5 32.5t31.5 12.5q20 0 32.5 -13t12.5 -32q0 -45 -45 -45t-45 45z" />
<glyph unicode="&#xf0;" horiz-adv-x="1075" d="M119 483q0 240 103.5 370t297.5 130q145 0 316 -72q-33 78 -74 145.5t-139 184.5l-304 -145l-18 47l285 137q-102 96 -189 158h80q80 -59 158 -135l301 145l18 -47l-282 -135q139 -150 217 -343.5t78 -410.5q0 -268 -99.5 -400t-322.5 -132q-426 0 -426 503zM174 483 q0 -227 90 -339.5t281 -112.5q188 0 277 115.5t89 351.5q0 156 -49 352q-192 82 -342 82q-168 0 -257 -117t-89 -332z" />
<glyph unicode="&#xf1;" d="M160 0v961l55 4v-127q240 145 383 145q129 0 200.5 -83t71.5 -236v-664h-55v664q0 131 -58.5 199.5t-158.5 68.5q-90 0 -188.5 -46t-194.5 -104v-782h-55zM234 1186q16 78 63 120t102 42q39 0 70 -21.5t58.5 -48.5t53 -48.5t56.5 -21.5q78 0 111 115l47 -10 q-16 -74 -61.5 -115t-98.5 -41t-125 70q-74 70 -115 69q-84 0 -116 -118z" />
<glyph unicode="&#xf2;" horiz-adv-x="1081" d="M119 481q0 502 424 502q205 0 313.5 -124t108.5 -378q0 -250 -107.5 -375.5t-314.5 -125.5q-424 -1 -424 501zM174 481q0 -451 369 -450q178 0 272 113.5t94 336.5t-93 337t-273 114q-369 0 -369 -451zM383 1434h63l170 -320h-57z" />
<glyph unicode="&#xf3;" horiz-adv-x="1081" d="M119 481q0 502 424 502q205 0 313.5 -124t108.5 -378q0 -250 -107.5 -375.5t-314.5 -125.5q-424 -1 -424 501zM174 481q0 -451 369 -450q178 0 272 113.5t94 336.5t-93 337t-273 114q-369 0 -369 -451zM465 1114l167 320h66l-178 -320h-55z" />
<glyph unicode="&#xf4;" horiz-adv-x="1081" d="M119 481q0 502 424 502q205 0 313.5 -124t108.5 -378q0 -250 -107.5 -375.5t-314.5 -125.5q-424 -1 -424 501zM174 481q0 -451 369 -450q178 0 272 113.5t94 336.5t-93 337t-273 114q-369 0 -369 -451zM283 1114l233 320h49l236 -320h-64l-196 270l-197 -270h-61z" />
<glyph unicode="&#xf5;" horiz-adv-x="1081" d="M119 481q0 502 424 502q205 0 313.5 -124t108.5 -378q0 -250 -107.5 -375.5t-314.5 -125.5q-424 -1 -424 501zM174 481q0 -451 369 -450q178 0 272 113.5t94 336.5t-93 337t-273 114q-369 0 -369 -451zM261 1186q16 78 63 120t102 42q39 0 70 -21.5t58.5 -48.5t53 -48.5 t56.5 -21.5q78 0 111 115l47 -10q-16 -74 -61.5 -115t-98.5 -41t-125 70q-74 70 -115 69q-84 0 -116 -118z" />
<glyph unicode="&#xf6;" horiz-adv-x="1081" d="M119 481q0 502 424 502q205 0 313.5 -124t108.5 -378q0 -250 -107.5 -375.5t-314.5 -125.5q-424 -1 -424 501zM174 481q0 -451 369 -450q178 0 272 113.5t94 336.5t-93 337t-273 114q-369 0 -369 -451zM318 1210q0 45 45 45q20 0 32.5 -13t12.5 -32q0 -20 -13.5 -32.5 t-31.5 -12.5q-45 0 -45 45zM678 1210q0 20 13.5 32.5t31.5 12.5q20 0 32.5 -13t12.5 -32q0 -45 -45 -45t-45 45z" />
<glyph unicode="&#xf7;" horiz-adv-x="1148" d="M92 694l6 51h959l-4 -51h-961zM526 274q0 50 49 50q23 0 36.5 -14.5t13.5 -35.5q0 -23 -14.5 -36t-35.5 -13q-49 0 -49 49zM526 1167q0 50 49 50q23 0 36.5 -14.5t13.5 -35.5q0 -23 -14.5 -36t-35.5 -13q-49 0 -49 49z" />
<glyph unicode="&#xf8;" horiz-adv-x="1081" d="M119 481q0 502 424 502q141 0 233 -59l94 153l50 -22l-99 -162q80 -80 112 -179.5t32 -232.5q0 -250 -107.5 -375.5t-314.5 -125.5q-143 0 -240 57l-92 -152l-47 23l96 162q-76 76 -108.5 174t-32.5 237zM174 481q0 -139 36 -234t81 -128l459 758q-86 55 -207 55 q-369 0 -369 -451zM332 86q86 -55 211 -55q178 0 272 113.5t94 336.5q0 244 -118 363z" />
<glyph unicode="&#xf9;" d="M160 299v662l55 4v-666q0 -129 57.5 -198.5t157.5 -69.5q92 0 190.5 46t194.5 103v781l55 4v-965h-45l-10 125q-248 -145 -385 -145q-131 0 -200.5 83.5t-69.5 235.5zM357 1434h63l170 -320h-57z" />
<glyph unicode="&#xfa;" d="M160 299v662l55 4v-666q0 -129 57.5 -198.5t157.5 -69.5q92 0 190.5 46t194.5 103v781l55 4v-965h-45l-10 125q-248 -145 -385 -145q-131 0 -200.5 83.5t-69.5 235.5zM439 1114l167 320h66l-178 -320h-55z" />
<glyph unicode="&#xfb;" d="M160 299v662l55 4v-666q0 -129 57.5 -198.5t157.5 -69.5q92 0 190.5 46t194.5 103v781l55 4v-965h-45l-10 125q-248 -145 -385 -145q-131 0 -200.5 83.5t-69.5 235.5zM256 1114l233 320h49l236 -320h-64l-196 270l-197 -270h-61z" />
<glyph unicode="&#xfc;" d="M160 299v662l55 4v-666q0 -129 57.5 -198.5t157.5 -69.5q92 0 190.5 46t194.5 103v781l55 4v-965h-45l-10 125q-248 -145 -385 -145q-131 0 -200.5 83.5t-69.5 235.5zM289 1210q0 45 45 45q20 0 32.5 -13t12.5 -32q0 -20 -13.5 -32.5t-31.5 -12.5q-45 0 -45 45zM649 1210 q0 20 13.5 32.5t31.5 12.5q20 0 32.5 -13t12.5 -32q0 -45 -45 -45t-45 45z" />
<glyph unicode="&#xfd;" horiz-adv-x="909" d="M37 961l59 4l359 -910l360 910l59 -4l-540 -1352l-58 4l156 387h-12zM410 1114l167 320h66l-178 -320h-55z" />
<glyph unicode="&#xfe;" horiz-adv-x="1064" d="M160 -389v1855l55 4v-634q236 147 397 147q166 0 251 -128t85 -374q0 -242 -104.5 -371.5t-298.5 -129.5q-156 0 -330 79v-442zM215 111q178 -80 330 -80q172 0 260 118.5t88 333.5q0 217 -71.5 333t-209.5 116q-158 0 -397 -152v-669z" />
<glyph unicode="&#xff;" horiz-adv-x="909" d="M37 961l59 4l359 -910l360 910l59 -4l-540 -1352l-58 4l156 387h-12zM230 1210q0 45 45 45q20 0 32.5 -13t12.5 -32q0 -20 -13.5 -32.5t-31.5 -12.5q-45 0 -45 45zM590 1210q0 20 13.5 32.5t31.5 12.5q20 0 32.5 -13t12.5 -32q0 -45 -45 -45t-45 45z" />
<glyph unicode="&#x152;" horiz-adv-x="2289" d="M139 719q0 739 629 739q223 0 363.5 -93t207.5 -292v365h854l-6 -54h-790v-643h696l-4 -53h-692v-635h796l-6 -53h-848v362q-129 -383 -571 -382q-629 0 -629 739zM197 719q0 -686 571 -686t571 686t-571 686t-571 -686z" />
<glyph unicode="&#x153;" horiz-adv-x="1781" d="M119 481q0 502 424 502q311 0 391 -293l8 23q80 270 373 270q160 0 254 -110.5t94 -297.5q0 -53 -8 -114h-690q4 -207 99 -317.5t271 -110.5q127 0 281 57l8 -51q-150 -59 -293 -59q-287 0 -383 264l-12 32q-45 -158 -144.5 -227t-248.5 -69q-424 0 -424 501zM174 481 q0 -451 369 -450q178 0 272 113.5t94 336.5t-93 337t-273 114q-369 0 -369 -451zM965 512h639l4 72q0 147 -74 247.5t-219 100.5q-338 0 -350 -420z" />
<glyph unicode="&#x178;" horiz-adv-x="1161" d="M37 1436l65 6l480 -752l477 752l67 -6l-516 -801v-635h-57v635zM357 1653q0 45 45 45t45 -45q0 -20 -13.5 -32.5t-31.5 -12.5q-20 0 -32.5 13t-12.5 32zM717 1653q0 20 13.5 32.5t31.5 12.5q45 0 45 -45t-45 -45q-20 0 -32.5 13t-12.5 32z" />
<glyph unicode="&#x2c6;" horiz-adv-x="733" d="M109 1114l233 320h49l236 -320h-64l-196 270l-197 -270h-61z" />
<glyph unicode="&#x2dc;" horiz-adv-x="778" d="M109 1186q16 78 63 120t102 42q39 0 70 -21.5t58.5 -48.5t53 -48.5t56.5 -21.5q78 0 111 115l47 -10q-16 -74 -61.5 -115t-98.5 -41t-125 70q-74 70 -115 69q-84 0 -116 -118z" />
<glyph unicode="&#x2000;" horiz-adv-x="909" />
<glyph unicode="&#x2001;" horiz-adv-x="1819" />
<glyph unicode="&#x2002;" horiz-adv-x="909" />
<glyph unicode="&#x2003;" horiz-adv-x="1819" />
<glyph unicode="&#x2004;" horiz-adv-x="606" />
<glyph unicode="&#x2005;" horiz-adv-x="454" />
<glyph unicode="&#x2006;" horiz-adv-x="303" />
<glyph unicode="&#x2007;" horiz-adv-x="303" />
<glyph unicode="&#x2008;" horiz-adv-x="227" />
<glyph unicode="&#x2009;" horiz-adv-x="363" />
<glyph unicode="&#x200a;" horiz-adv-x="101" />
<glyph unicode="&#x2010;" horiz-adv-x="503" d="M68 457l4 51h366l-6 -51h-364z" />
<glyph unicode="&#x2011;" horiz-adv-x="503" d="M68 457l4 51h366l-6 -51h-364z" />
<glyph unicode="&#x2012;" horiz-adv-x="503" d="M68 457l4 51h366l-6 -51h-364z" />
<glyph unicode="&#x2013;" horiz-adv-x="1159" d="M57 457l4 51h1043l-6 -51h-1041z" />
<glyph unicode="&#x2014;" horiz-adv-x="2177" d="M57 457l4 51h2050l-6 -51h-2048z" />
<glyph unicode="&#x2018;" horiz-adv-x="274" d="M72 1364q0 121 82 287l51 -6q-68 -147 -68 -259q0 -80 33 -180l-70 -6q-29 86 -28 164z" />
<glyph unicode="&#x2019;" horiz-adv-x="274" d="M70 1206q70 147 69 256q0 80 -35 183l70 6q31 -84 31 -160q0 -117 -82 -291z" />
<glyph unicode="&#x201a;" horiz-adv-x="274" d="M70 -256q70 147 69 256q0 82 -35 184l70 6q29 -88 29 -163q0 -117 -80 -289z" />
<glyph unicode="&#x201c;" horiz-adv-x="518" d="M72 1364q0 121 82 287l51 -6q-68 -147 -68 -259q0 -80 33 -180l-70 -6q-29 86 -28 164zM315 1364q0 121 82 287l52 -6q-68 -147 -68 -259q0 -80 33 -180l-70 -6q-29 86 -29 164z" />
<glyph unicode="&#x201d;" horiz-adv-x="518" d="M70 1206q70 147 69 256q0 80 -35 183l70 6q31 -84 31 -160q0 -117 -82 -291zM313 1206q70 147 70 256q0 80 -35 183l70 6q31 -84 31 -160q0 -117 -82 -291z" />
<glyph unicode="&#x201e;" horiz-adv-x="518" d="M70 -256q70 147 69 256q0 82 -35 184l70 6q29 -88 29 -163q0 -117 -80 -289zM313 -256q70 147 70 256q0 82 -35 184l70 6q29 -88 28 -163q0 -117 -79 -289z" />
<glyph unicode="&#x2022;" horiz-adv-x="772" d="M68 719q0 141 89 230t230 89t230.5 -89t89.5 -230t-89.5 -230.5t-230.5 -89.5t-230 89.5t-89 230.5z" />
<glyph unicode="&#x2026;" horiz-adv-x="1431" d="M109 43q0 49 49 49t49 -49q0 -23 -14.5 -36t-34.5 -13q-23 0 -36 14.5t-13 34.5zM668 43q0 49 49 49t49 -49q0 -23 -14.5 -36t-34.5 -13q-23 0 -36 14.5t-13 34.5zM1225 43q0 23 14.5 36t34.5 13q49 0 49 -49t-49 -49q-23 0 -36 14.5t-13 34.5z" />
<glyph unicode="&#x202f;" horiz-adv-x="363" />
<glyph unicode="&#x2039;" horiz-adv-x="524" d="M37 457l4 53l399 395l37 -43l-389 -381l389 -379l-37 -43z" />
<glyph unicode="&#x203a;" horiz-adv-x="524" d="M47 100l389 381l-389 381l37 41l403 -397l-4 -51l-399 -396z" />
<glyph unicode="&#x205f;" horiz-adv-x="454" />
<glyph unicode="&#x20ac;" horiz-adv-x="1247" d="M10 530l6 52h191l-4 137l6 147h-199l6 52h199q39 256 187.5 398t390.5 142q180 0 358 -80l-12 -53q-176 80 -346 80q-215 0 -349.5 -129t-169.5 -358h756l-4 -52h-760l-6 -147l6 -137h682l-4 -52h-672q33 -231 167 -364t354 -133q170 0 346 80l12 -54q-184 -80 -358 -79 q-238 0 -385.5 138t-194.5 412h-203z" />
<glyph unicode="&#x2122;" horiz-adv-x="1110" d="M10 1401l4 37h430l-4 -37h-194v-475h-39v475h-197zM502 926v510l51 4l225 -473l223 473l52 -4v-510h-39v450l-213 -450l-45 -2l-215 452v-450h-39z" />
<glyph unicode="&#x25fc;" horiz-adv-x="962" d="M0 0v963h963v-963h-963z" />
</font>
</defs>
</svg>
