<?xml version="1.0" encoding="UTF-8"?>
<svg width="132px" height="21px" viewBox="0 0 132 21" version="1.1" xmlns="http://www.w3.org/2000/svg" xmlns:xlink="http://www.w3.org/1999/xlink">
    <!-- Generator: Sketch 48 (47235) - http://www.bohemiancoding.com/sketch -->
    <title>MS Logo</title>
    <desc>Created with Sketch.</desc>
    <defs>
        <polygon id="path-1" points="4.7534413 15.5217391 9.13043478 15.5217391 9.13043478 0.278478261 0.376447826 0.278478261 0.376447826 15.5217391"></polygon>
        <polygon id="path-3" points="3.67883478 0.660130435 0.125269565 0.660130435 0.125269565 15.8445913 3.67883478 15.8445913"></polygon>
    </defs>
    <g id="MAIN-NAV/DEFAULT" stroke="none" stroke-width="1" fill="none" fill-rule="evenodd" transform="translate(-123.000000, -27.000000)">
        <g>
            <rect id="bkgd" fill="#FFFFFF" x="0" y="0" width="1440" height="75"></rect>
            <g id="LOGO-Copy" transform="translate(123.000000, 27.000000)">
                <g id="MS-Logo">
                    <g id="Group-3" transform="translate(122.347826, 4.818404)">
                        <mask id="mask-2" fill="white">
                            <use xlink:href="#path-1"></use>
                        </mask>
                        <g id="Clip-2"></g>
                        <path d="M5.01014348,8.59813043 L4.98001304,8.77434783 L4.94805652,8.59813043 L2.05005652,0.278478261 L0.391969565,0.278478261 L4.17105652,11.0149565 L4.17105652,11.1007826 C3.9437087,12.1297826 3.30001304,13.3906957 2.71383913,13.7851304 C2.19979565,14.1375652 1.63918696,14.1804783 1.20640435,14.1804783 C0.999143478,14.1804783 0.558143478,14.1083478 0.376447826,14.0663478 L0.376447826,15.3592174 C0.607447826,15.4167391 1.16075217,15.5217391 1.50588261,15.5217391 C2.31118696,15.5217391 2.97862174,15.3181304 3.54927391,14.9063478 C4.23314348,14.406913 5.0001,13.1195217 5.36166522,12.0101739 L9.1307087,0.278478261 L7.47536087,0.278478261 L5.01014348,8.59813043 Z" id="Fill-1" fill="#000000" mask="url(#mask-2)"></path>
                    </g>
                    <path d="M119.952913,9.48076957 L114.268304,9.48076957 C114.414391,7.26481304 115.323783,6.23216087 117.124304,6.23216087 C119.059043,6.23216087 119.946522,7.26481304 119.952913,9.48076957 Z M121.600957,10.8211174 L121.600957,9.79759565 C121.600957,8.02263913 121.141696,6.71607391 120.267,5.90985652 C119.521043,5.22507391 118.469217,4.89181304 117.082304,4.89181304 C116.362826,4.89181304 115.708174,5.0232913 115.138435,5.27803043 C114.580565,5.53094348 114.065609,5.90437826 113.680304,6.39285652 C112.911522,7.35246522 112.48787,8.77681304 112.48787,10.5015522 C112.48787,12.4225957 113.032043,13.8871174 114.032739,14.8622478 C115.088217,15.8912478 116.439522,16.1085522 117.373565,16.1085522 C119.796783,16.1085522 120.984652,14.7837261 121.483174,13.583987 L120.123652,12.9320739 C119.794957,13.6643348 119.056304,14.7672913 117.373565,14.7672913 C116.411217,14.7672913 115.608652,14.3856391 115.050783,13.6606826 C114.510261,12.9612913 114.226304,11.9779435 114.223565,10.8211174 L121.600957,10.8211174 Z" id="Fill-4" fill="#000000"></path>
                    <path d="M19.6491522,14.7584348 C17.8321957,14.7584348 16.7475,13.1624348 16.7475,10.4908696 C16.7475,7.81747826 17.8321957,6.22330435 19.6491522,6.22330435 C21.4642826,6.22330435 22.5462391,7.81747826 22.5462391,10.4908696 C22.5462391,13.1624348 21.4642826,14.7584348 19.6491522,14.7584348 M23.109587,6.52004348 C22.271413,5.45086957 21.0753261,4.88478261 19.6491522,4.88478261 C18.2229783,4.88478261 17.0278043,5.45086957 16.1859783,6.52004348 C15.4053261,7.51891304 14.9761957,8.92956522 14.9761957,10.4908696 C14.9761957,12.0503478 15.4053261,13.461913 16.1859783,14.4607826 C17.0278043,15.5345217 18.2229783,16.0978696 19.6491522,16.0978696 C21.0753261,16.0978696 22.271413,15.5345217 23.109587,14.4607826 C23.8911522,13.461913 24.3230217,12.0503478 24.3230217,10.4908696 C24.3230217,8.92956522 23.8911522,7.51891304 23.109587,6.52004348" id="Fill-6" fill="#000000"></path>
                    <path d="M28.1001913,9.81165652 C28.5165391,7.58748261 29.6815826,6.5393087 31.6957565,6.5393087 L31.6957565,4.95791739 C29.9810609,4.95791739 28.9776261,5.6280913 28.0992783,7.19943913 L28.0846696,7.21861304 L28.1001913,7.08165652 L28.1001913,5.1240913 L26.4083217,5.1240913 L26.4083217,15.9263087 L28.1001913,15.9263087 L28.1001913,9.81165652 Z" id="Fill-8" fill="#000000"></path>
                    <path d="M69.4867174,4.76581304 C69.4931087,4.04816087 69.729587,3.48298696 70.1815435,3.09311739 C70.6417174,2.69685652 71.3000217,2.49872609 72.1455,2.49872609 C73.0357174,2.49872609 73.8218478,2.75346522 74.4253696,3.23555217 C74.9786739,3.67563913 75.3840652,4.31476957 75.567587,5.04885652 L77.1435,4.85437826 C76.4532391,2.49872609 74.7595435,1.0625087 72.1875,1.0625087 C70.9138043,1.0625087 69.7633696,1.45876957 68.9434565,2.17916087 C68.1500217,2.88037826 67.7117609,3.84272609 67.7117609,4.88998696 C67.7117609,6.04042174 68.1838043,6.94798696 69.1543696,7.6565087 C70.0126304,8.28194348 71.1393261,8.68094348 72.2313261,9.06624783 C74.1277174,9.74007391 75.9218478,10.3755522 75.9218478,12.0939 C75.9218478,12.8608565 75.6616304,13.501813 75.1713261,13.9537696 C74.6280652,14.444987 73.8309783,14.6942478 72.8028913,14.6942478 C70.9950652,14.6942478 69.6848478,13.6825957 68.9461957,11.737813 L67.337413,12.1705957 C67.6852826,12.9612913 68.2751087,14.1071609 69.1342826,14.8741174 C70.0774565,15.7195957 71.2516304,16.1295522 72.7198043,16.1295522 C74.4591522,16.1295522 75.7785,15.6730304 76.6440652,14.7764217 C77.5406739,13.8414652 77.7278478,12.6472043 77.7278478,11.8135957 C77.7278478,10.6147696 77.2329783,9.67616087 76.2121957,8.94663913 C75.3165,8.30659565 74.1505435,7.90668261 73.0275,7.5222913 C71.1959348,6.89685652 69.4675435,6.3042913 69.4867174,4.76581304" id="Fill-10" fill="#000000"></path>
                    <path d="M80.4039783,6.42873913 L78.780587,6.42873913 L78.780587,5.08930435 L80.4039783,5.08930435 L80.4039783,1.554 L82.0958478,1.554 L82.0958478,5.08930435 L83.9128043,5.08930435 L83.9128043,6.42873913 L82.0958478,6.42873913 L82.0958478,13.8106957 C82.0958478,14.3037391 82.2108913,14.7584348 83.3458043,14.7584348 C83.5357174,14.7584348 83.7274565,14.7529565 83.9128043,14.741087 L83.9128043,15.9316957 C83.9128043,15.9316957 83.274587,16.0978696 82.7925,16.0978696 C82.0301087,16.0978696 81.4548913,15.9782609 81.0686739,15.7189565 C80.7089348,15.4751739 80.4039783,15.0816522 80.4039783,14.4160435 L80.4039783,6.42873913 Z" id="Fill-12" fill="#000000"></path>
                    <g id="Group-16" transform="translate(107.739130, 0.253187)">
                        <mask id="mask-4" fill="white">
                            <use xlink:href="#path-3"></use>
                        </mask>
                        <g id="Clip-15"></g>
                        <path d="M1.81805217,13.5574174 C1.81805217,14.0504609 1.97509565,14.5051565 3.10818261,14.5051565 C3.29718261,14.5051565 3.48526957,14.4996783 3.67883478,14.4887217 L3.67883478,15.6784174 C3.67883478,15.6784174 3.03513913,15.8445913 2.55396522,15.8445913 C1.79248696,15.8445913 1.21453043,15.7249826 0.83013913,15.4656783 C0.4704,15.2218957 0.125269565,14.8283739 0.125269565,14.1627652 L0.125269565,0.659765217 L1.81987826,0.659765217 L1.81805217,13.5574174 Z" id="Fill-14" fill="#000000" mask="url(#mask-4)"></path>
                    </g>
                    <path d="M56.3091261,7.90887391 C56.8852565,7.29348261 58.1626043,6.25900435 59.3376913,6.25900435 C60.5127783,6.25900435 61.0341261,6.83513478 61.0341261,8.13165652 L61.0341261,15.931787 L62.7269087,15.931787 L62.7269087,8.09056957 C62.7269087,5.75135217 61.0596913,4.91956957 59.4819522,4.91956957 C58.3808217,4.91956957 57.2577783,5.49752609 56.3091261,6.5730913 L56.3091261,5.12591739 L54.6181696,5.12591739 L54.6181696,15.931787 L56.3091261,15.931787 L56.3091261,7.90887391 Z" id="Fill-17" fill="#000000"></path>
                    <path d="M50.0970522,12.7861696 C50.0185304,13.7311696 48.2590957,14.8806913 46.8174,14.8003435 C46.0212261,14.7546913 45.2387478,14.1237783 45.1584,13.0728652 C45.0260087,11.3207348 46.3645304,10.5784304 49.3109217,10.2543 C49.5145304,10.2351261 49.8998348,10.1639087 50.0970522,10.0506913 L50.0970522,12.7861696 Z M50.1070957,14.5930826 C50.1527478,15.190213 50.3645739,15.5362565 50.8375304,15.7846043 C51.2803565,16.0238217 52.0117043,15.965387 52.3230522,15.8905174 L52.3230522,14.7446478 C51.9468783,14.7254739 51.6985304,14.5519957 51.6985304,14.0863435 L51.6985304,8.86647391 L51.6930522,8.17803913 C51.6930522,7.09882174 51.2630087,6.22686522 50.4549652,5.65803913 C49.7866174,5.18234348 48.8644435,4.92395217 47.8628348,4.92395217 C45.4642696,4.92395217 44.3184,6.34738696 43.8381391,7.23851739 L45.2022261,7.95160435 C45.3921391,7.4403 46.0586609,6.26247391 47.8838348,6.26247391 C49.3218783,6.26247391 50.0495739,6.90343043 50.0495739,8.16434348 L50.0495739,8.55056087 C50.0495739,8.55056087 50.0541391,8.66286522 50.0212696,8.70577826 C49.9674,8.77334348 49.8267913,8.82356087 49.4597478,8.86282174 C47.4455739,9.08560435 46.1061391,9.42616957 45.1218783,10.0598217 C44.0536174,10.7482565 43.3816174,11.704213 43.3816174,13.0217348 C43.3816174,13.9566913 43.8381391,14.7546913 44.4343565,15.3226043 C44.9876609,15.8494304 45.7546174,16.1160391 46.5909652,16.1388652 C48.3668348,16.1936478 49.5391826,15.463213 50.1070957,14.5930826 Z" id="Fill-19" fill="#000000"></path>
                    <path d="M92.2762826,12.7861696 C92.1977609,13.7311696 90.4383261,14.8806913 88.9938913,14.8003435 C88.2004565,14.7546913 87.4170652,14.1237783 87.3367174,13.0728652 C87.2052391,11.3207348 88.5437609,10.5784304 91.4883261,10.2543 C91.6928478,10.2351261 92.0790652,10.1639087 92.2762826,10.0506913 L92.2762826,12.7861696 Z M92.2872391,14.5930826 C92.3292391,15.190213 92.5456304,15.5362565 93.0149348,15.7846043 C93.459587,16.0238217 94.1900217,15.965387 94.5013696,15.8905174 L94.5013696,14.7446478 C94.1261087,14.7254739 93.8777609,14.5519957 93.8777609,14.0863435 L93.8777609,8.86647391 L93.8695435,8.17803913 C93.8695435,7.09882174 93.4431522,6.22686522 92.6341957,5.65803913 C91.9640217,5.18234348 91.0436739,4.92395217 90.0429783,4.92395217 C87.6453261,4.92395217 86.4994565,6.34738696 86.0146304,7.23851739 L87.3805435,7.95160435 C87.5713696,7.4403 88.2388043,6.26247391 90.0612391,6.26247391 C91.5001957,6.26247391 92.2269783,6.90343043 92.2269783,8.16434348 L92.2278913,8.55056087 C92.2278913,8.55056087 92.2324565,8.66286522 92.1977609,8.70577826 C92.1448043,8.77334348 92.0023696,8.82356087 91.6380652,8.86282174 C89.6238913,9.08560435 88.2844565,9.42616957 87.3001957,10.0598217 C86.2319348,10.7482565 85.5599348,11.704213 85.5599348,13.0217348 C85.5599348,13.9566913 86.0146304,14.7546913 86.6126739,15.3226043 C87.1668913,15.8494304 87.9338478,16.1160391 88.7683696,16.1388652 C90.5451522,16.1936478 91.718413,15.463213 92.2872391,14.5930826 Z" id="Fill-21" fill="#000000"></path>
                    <polygon id="Fill-23" fill="#000000" points="6.39313043 13.0393565 2.81126087 1.26474783 0 1.26474783 0 15.9264 1.69186957 15.9264 1.69186957 2.51835652 1.7283913 2.56766087 5.74669565 15.9264 7.05965217 15.9264 11.0797826 2.56766087 11.1163043 2.51835652 11.1163043 15.9264 12.8072609 15.9264 12.8072609 1.26474783 9.99052174 1.26474783 6.41321739 13.0393565 6.40317391 13.0996174"></polygon>
                    <path d="M98.4865304,7.90887391 C99.0626609,7.29348261 100.342748,6.25900435 101.516009,6.25900435 C102.688357,6.25900435 103.213357,6.83513478 103.213357,8.13165652 L103.213357,15.931787 L104.904313,15.931787 L104.904313,8.09056957 C104.904313,5.75135217 103.238922,4.91956957 101.659357,4.91956957 C100.559139,4.91956957 99.4351826,5.49752609 98.4865304,6.5730913 L98.4865304,5.12591739 L96.7955739,5.12591739 L96.7955739,15.931787 L98.4865304,15.931787 L98.4865304,7.90887391 Z" id="Fill-25" fill="#000000"></path>
                    <path d="M39.6460826,12.7861696 C39.2078217,14.0297348 37.9651696,14.7565174 37.0749522,14.7565174 C35.3346913,14.7565174 34.1176043,13.6709087 34.1176043,10.421387 C34.1176043,7.6859087 35.2114304,6.24877826 37.0749522,6.24877826 C38.0290826,6.24877826 38.8563,6.66512609 39.6460826,7.6439087 L39.6460826,12.7861696 Z M40.0249957,5.11477826 L39.6652565,6.25608261 C39.044387,5.44712609 38.2336043,4.91116957 36.9498652,4.91116957 C35.0434304,4.91116957 32.3463,6.19399565 32.3463,10.5017348 C32.3463,14.6871261 35.0434304,16.0950391 36.8667783,16.0950391 C37.9304739,16.0950391 38.899213,15.5125174 39.5611696,14.6643 L39.6460826,14.623213 L39.6460826,16.6766478 C39.6460826,18.1165174 38.4079957,18.9976043 37.0749522,18.9976043 C35.7793435,18.9976043 34.6307348,18.7510826 33.6948652,18.3128217 L33.6948652,19.7746043 C34.4828217,20.1133435 35.7647348,20.333387 36.8667783,20.333387 C39.8643,20.333387 41.2923,18.6771261 41.2923,16.2867783 L41.2923,5.11477826 L40.0249957,5.11477826 Z" id="Fill-27" fill="#000000"></path>
                </g>
            </g>
        </g>
    </g>
</svg>